<svg xmlns="http://www.w3.org/2000/svg" xml:space="preserve" width="200" height="200" data-id="lg_sDOFqzrpD48kpWsnhE" data-version="1" viewBox="0 0 2000 1500"><path fill="#97b002" stroke="transparent" d="M0 0h2000v1500H0z"/><g data-padding="20"><g transform="translate(-1651.786 -1240.466)scale(2.5829)"><rect width="560" height="385.754" x="346.167" y="177.773" fill="none" rx="0" ry="0" transform="translate(400.5 399.98)"/><path fill="#0b0b0b" d="M914.097 641.99h117.78v235.89h-117.78v-85.35l-15.02 39.6h-8.87l-15.71-39.6v85.35h-117.43V641.99h117.43l15.71 45.4h8.87Zm262.18 166.93h-7.51v68.96h-117.44V641.99h123.92q61.11 0 89.79 19.97 28.67 19.97 28.67 69.13 0 37.21-24.24 54.96 20.49 36.53 31.07 91.83h-112.31q-2.74-34.48-9.56-60.77Zm-7.51-67.59v39.94h9.9q4.09 0 6.82-2.73 2.74-2.73 2.74-7.17v-20.48q0-4.44-2.74-7-2.73-2.56-6.82-2.56Z"/></g><path fill="transparent" stroke="transparent" stroke-width="2.679" d="M250 233.036h1500v1033.928H250z"/></g></svg>